# xmcd
#
# Track frame offsets: 
#        150
#        12510
#        23150
#        32570
#        43305
#        52457
#        63827
#        76262
#        86887
#        98065
#        109862
#        122527
#        132577
#        146390
#        157285
#        168192
#        178347
#        188582
#        199172
#        211862
#        220875
#        233950
#        244957
#        257365
#        268412
#        280227
#        289870
#        302575
#        316407
#        330530
#        342517
#
# Disc length: 4718 seconds
#
# Revision: 2
# Processed by: cddbd v1.5.2PL0 Copyright (c) Steve Scherf et al.
# Submitted via: ExactAudioCopy v1.3
#
DISCID=da126c1f
DTITLE=Wynn Stewart - Wishful Thinking_CD05
DYEAR=2000
DGENRE=Country
TTITLE0=A Thousand Wonders
TTITLE1=Don't Lay Your Head On My Shoulder
TTITLE2=There's A Star Spangled Banner Waving Somewhere
TTITLE3=Happy Blues
TTITLE4=A Tough Row To How
TTITLE5=Kiss-A Me, Love-A Me
TTITLE6=Let The Whole World Sing It With Me
TTITLE7=You're Everything To Me
TTITLE8=Strings
TTITLE9=I'll Die Tryin'
TTITLE10=Living In Sunshine
TTITLE11=Lousiana Blues Harp Man
TTITLE12=Missing You
TTITLE13=Whishful Thinking
TTITLE14=The Keeper Of The Key
TTITLE15=I Was Just Walking Out The Door
TTITLE16=Back To The Blue Room
TTITLE17=Run Away
TTITLE18=Who Are You
TTITLE19=World Wide Travelin' Man
TTITLE20=No Time Like The Present
TTITLE21=I'm Beginning To Believe
TTITLE22=Since Baby's Gone
TTITLE23=All Of A Sudden
TTITLE24=In Your Arms Of Love
TTITLE25=Let's Invest In A Little Bit Of Love
TTITLE26=If Houses Had Hearts
TTITLE27=But You Know I Love You
TTITLE28=Happy Happy Birthday
TTITLE29=Games People Play
TTITLE30=I Bought The Shoes (That Just Walked Out On Me)
EXTD=
EXTT0=
EXTT1=
EXTT2=
EXTT3=
EXTT4=
EXTT5=
EXTT6=
EXTT7=
EXTT8=
EXTT9=
EXTT10=
EXTT11=
EXTT12=
EXTT13=
EXTT14=
EXTT15=
EXTT16=
EXTT17=
EXTT18=
EXTT19=
EXTT20=
EXTT21=
EXTT22=
EXTT23=
EXTT24=
EXTT25=
EXTT26=
EXTT27=
EXTT28=
EXTT29=
EXTT30=
PLAYORDER=
